<svg viewBox="0 0 24 24" xmlns="http://www.w3.org/2000/svg">
  <path d="M11.226 8.12V6.288c0-.292-.137-.427-.42-.427h-.463v2.685h.463c.284 0 .42-.135.42-.426m-1.502 6.5-.252.628h.501z"></path>
  <path fill-rule="evenodd" d="M5.278 2.5h13.445c1.103 0 1.505.401 1.505 1.488V17.23c0 .17-.03.477-.086.609a.9.9 0 0 1-.21.334c-.106.099-.29.202-.378.242l-7.128 3a1.1 1.1 0 0 1-.851 0l-7.127-3a1.7 1.7 0 0 1-.379-.241.9.9 0 0 1-.21-.335c-.055-.131-.086-.438-.086-.608V3.988c0-1.087.403-1.488 1.505-1.488m8.707 2.383h-1.126v7.285h1.126zm-.414 9.027h-.654l-.534.855-.532-.855h-.655v2.208h.607v-1.262l.568.858h.013l.571-.864v1.268h.616zm-2.587-9.027H9.218v7.286h1.125V9.525h.641c.915 0 1.368-.447 1.368-1.353V6.236c0-.906-.453-1.353-1.368-1.353m-2.33 0H6.15v7.286h2.524v-1.01H7.276V8.963H8.6v-1.01H7.276v-2.06h1.377zM7.86 16.067q.243-.098.421-.243v-.994H7.255v.45h.44v.267a.64.64 0 0 1-.357.091.6.6 0 0 1-.436-.172.6.6 0 0 1-.126-.194.7.7 0 0 1-.045-.246v-.006a.63.63 0 0 1 .166-.429.54.54 0 0 1 .405-.177q.166 0 .292.054a1 1 0 0 1 .248.154l.363-.431a1.4 1.4 0 0 0-.394-.237 1.4 1.4 0 0 0-.512-.085q-.26 0-.48.088a1.2 1.2 0 0 0-.382.245q-.16.156-.25.364-.09.209-.091.451v.007q0 .25.092.458.093.21.256.362.162.151.384.236.223.085.484.085.306 0 .549-.098m1.57-2.173-.952 2.224h.652l.16-.394h.861l.164.394h.663l-.951-2.224zm5.273 4.686.013-.018.004-.023a.06.06 0 0 0-.017-.041.05.05 0 0 0-.04-.017H9.346a.06.06 0 0 0-.041.017l-.013.018-.005.023a.06.06 0 0 0 .018.041q.007.008.018.012l2.58 1.095a.23.23 0 0 0 .181 0l2.6-1.095zm-.719-2.462h1.813v-.52h-1.2v-.35h1.072v-.483h-1.072v-.334h1.184v-.52h-1.796zm.594-9.945v4.705c0 .906.453 1.353 1.368 1.353h.557c.915 0 1.367-.448 1.367-1.353V9.18h-1.104v1.645c0 .291-.137.426-.42.426h-.21c-.295 0-.432-.135-.432-.426v-4.6c0-.292.136-.427.431-.427h.19c.283 0 .42.135.42.426V7.65h1.104V6.163c0-.906-.442-1.343-1.357-1.343h-.547c-.914 0-1.367.448-1.367 1.353m3.27 9.569a.7.7 0 0 0 .065-.303v-.007a.53.53 0 0 0-.223-.458 1 1 0 0 0-.264-.133 3 3 0 0 0-.346-.097 2 2 0 0 1-.19-.049 1 1 0 0 1-.118-.047.16.16 0 0 1-.061-.052.12.12 0 0 1-.017-.066v-.006q0-.06.055-.101a.3.3 0 0 1 .168-.041q.15 0 .31.055.162.055.315.163l.31-.432a1.3 1.3 0 0 0-.407-.22q-.225-.075-.513-.074-.201 0-.36.052a.8.8 0 0 0-.273.147.63.63 0 0 0-.232.508v.007a.6.6 0 0 0 .066.285q.066.115.179.192.113.078.267.127.152.048.331.09.115.025.187.048a.6.6 0 0 1 .115.05.2.2 0 0 1 .059.051q.016.027.016.062v.006a.12.12 0 0 1-.066.112.4.4 0 0 1-.19.04q-.389 0-.724-.266l-.345.407q.209.183.477.275.27.091.57.091a1.3 1.3 0 0 0 .37-.049.8.8 0 0 0 .285-.142.7.7 0 0 0 .183-.225" clip-rule="evenodd"></path>
</svg>