<?xml version="1.0" encoding="UTF-8"?>
<svg version="1.1" viewBox="0 0 926.46 635.35" xmlns="http://www.w3.org/2000/svg" xmlns:cc="http://creativecommons.org/ns#" xmlns:dc="http://purl.org/dc/elements/1.1/" xmlns:rdf="http://www.w3.org/1999/02/22-rdf-syntax-ns#" xmlns:xlink="http://www.w3.org/1999/xlink">
<title>INRA</title>
<metadata>
<rdf:RDF>
<cc:Work rdf:about="">
<dc:format>image/svg+xml</dc:format>
<dc:type rdf:resource="http://purl.org/dc/dcmitype/StillImage"/>
<dc:title>INRA</dc:title>
<cc:license rdf:resource="http://artlibre.org/licence/lal"/>
<dc:date>10/14/2017</dc:date>
<dc:creator>
<cc:Agent>
<dc:title>RocketTurtle</dc:title>
</cc:Agent>
</dc:creator>
<dc:rights>
<cc:Agent>
<dc:title>FreeArt License</dc:title>
</cc:Agent>
</dc:rights>
<dc:subject>
<rdf:Bag>
<rdf:li>inra elite dangerous</rdf:li>
</rdf:Bag>
</dc:subject>
<dc:description>INRA logo from Elite Dangerous</dc:description>
</cc:Work>
<cc:License rdf:about="http://artlibre.org/licence/lal">
<cc:permits rdf:resource="http://creativecommons.org/ns#Reproduction"/>
<cc:permits rdf:resource="http://creativecommons.org/ns#Distribution"/>
<cc:permits rdf:resource="http://creativecommons.org/ns#DerivativeWorks"/>
<cc:requires rdf:resource="http://creativecommons.org/ns#ShareAlike"/>
<cc:requires rdf:resource="http://creativecommons.org/ns#Notice"/>
<cc:requires rdf:resource="http://creativecommons.org/ns#Attribution"/>
</cc:License>
</rdf:RDF>
</metadata>
<g transform="translate(-395.87 -250.89)">
<circle id="a" cx="675.31" cy="800.18" r="34.348" stroke="currentColor" stroke-linecap="square" stroke-width="9" style="paint-order:normal"/>
<use transform="matrix(1 0 0 -1 367.57 1598.5)" width="100%" height="100%" xlink:href="#a"/>
</g>
<g transform="translate(-395.87 -250.89)" fill="none" stroke="currentColor" stroke-linecap="square">
<circle cx="859.1" cy="580.62" r="290.61" stroke-width="10" style="paint-order:normal"/>
<path d="m1075.5 468.61c11.515 27.8 17.608 57.845 17.608 88.519 0 30.674-6.0926 60.72-17.608 88.519s-28.452 53.353-50.142 75.043c-21.69 21.69-47.243 38.627-75.043 50.142-27.8 11.515-57.845 17.608-88.519 17.608-30.674 0-60.72-6.0926-88.519-17.608-27.8-11.515-53.353-28.452-75.043-50.142-21.69-21.69-38.627-47.243-50.142-75.043s-17.608-57.845-17.608-88.519c0-30.674 6.0926-60.72 17.608-88.519" stroke-width="8" style="paint-order:normal"/>
</g>
<g transform="translate(-395.87 -250.89)">
<g transform="matrix(.52317 0 0 .52317 408.35 261.09)">
<a id="b" transform="translate(8.5989 1.1146)">
<path d="m1717.6-0.05 0.1-0.2 0.55 0.15 0.4 0.45 0.6 1.2 0.1 0.7-0.35 0.6-9.2 8.5-698.95 676.35-2.75 2.8-2.6 2.9-2.45 2.95-2.25 3.1-2.1 3.2-1.95 3.3-1.8 3.45-1.65 3.65-58.35 137.65-58.5 137.55-4.85 10.7-0.25 0.35-0.4 0.2-11.131 0.10578 0.0712-531.34 2.0597-1.0134 2.5-0.8 2.55-1.25 2.65-1.7 547.35-384.35 2.75-1.8 2.75-1.65 2.8-1.5 2.85-1.35 2.9-1.25 3-1.1 3.05-0.95 3.15-0.85 134.65-33.55 134.65-33.65 4.25-0.9 3.8-0.65"/>
</a>
<use transform="matrix(-1 0 0 1 1723.2 -1.2617)" width="100%" height="100%" xlink:href="#b"/>
</g>
</g>
<g transform="translate(-395.87 -250.89)">
<path d="m859.33 268.83 0.0716 0.0298 0.3939 0.11908 0.25067 0.29767 27 89.869 0.14324 0.11906 108.86 22.564 0.35805 0.1786 0.1791 0.44652-0.1791 0.41675-0.3222 0.14884-5.6221 1.3991-47.985 9.9722-48.02 9.8234-1.8979 0.44652-1.6472 0.53582-1.3966 0.65489-1.2533 0.8335-1.0027 0.98233-0.85943 1.161-0.68036 1.3693-0.57296 1.6075-11.566 39.413-11.817 39.353-0.50133 1.4289-0.64457 1.4289-0.85941 1.3693-0.53716 0.68465-0.25066 0.17862-0.32227 0.0595-0.39391-0.11907-0.25066-0.26791-1.8979-5.1201-11.817-39.323-11.638-39.353-0.46552-1.4289-0.57294-1.2502-0.68038-1.0716-0.85942-0.95257-1.0385-0.77396-1.2533-0.65489-1.4682-0.53582-1.7546-0.41675-48.808-9.9722-48.736-10.151-4.9417-1.2502-0.32228-0.17861-0.14324-0.47629 0.25067-0.53581 0.32228-0.14884 108.57-22.475 0.14325-0.11907 26.964-89.869 0.39391-0.38699 1.0743-0.0595"/>
</g>
</svg>
