<svg width="88" height="31" viewBox="0 0 88 31" version="1.1" xmlns="http://www.w3.org/2000/svg"
    xmlns:xlink="http://www.w3.org/1999/xlink" xml:space="preserve" xmlns:serif="http://www.serif.com/">
    <clipPath id="_clip1">
        <rect x="0" y="0" width="88" height="31" />
    </clipPath>
    <g clip-path="url(#_clip1)">
        <rect x="0" y="0" width="88" height="31" style="fill:rgb(226,214,206);"/>
        <path d="M85,19.6L88,21.6L88,31L81,31C83.041,29.646 85,27.005 85,21.846L85,19.6Z"/>
        <path d="M51,34L55,34C55,34 51.041,25.579 48,19C46.653,16.085 44.375,13.843 41.776,13.843L51,34Z"/>
        <path d="M66,17.744C68.793,20.461 64,26 66,31L74.535,31C79.08,27.761 81,23 78,17L71,13L61,13L58,16L66,17.744Z" style="fill:white;"/>
        <path d="M46,31L0,31L0,10C0,10 9.343,5.287 5,0L13,0C13,0 28.425,11.996 31,14C32.667,15.297 34.424,14.085 33.5,12C32.834,10.497 30.767,5.835 30.767,5.835C33.139,5.835 35.507,7.684 37,11C39.061,15.577 46,31 46,31Z"/>
        <path d="M66,17.744C69.68,18.59 69.946,21.283 67.004,25L69.552,25C68.49,27.444 68.926,29.184 70.297,31L58.697,31C58.697,31 60.089,29.121 63.674,24.252C65.346,21.981 66,20.564 66,17.744Z"/>
        <path d="M75.775,13.473L82,17.713L82,21.846C82,26.087 78.359,30.358 74.535,31C78.416,21.772 74.843,16 69.126,16L58,16L55.817,13.473L58.716,10.223C58.716,7.094 60.019,4.04 62,3L62,7L63.906,7C65.665,4.529 68.335,3 70.689,3L68.349,8L73.68,8L71.717,10.223L79,11.5L75.775,13.473Z"/>
        <circle cx="65" cy="11" r="2" style="fill:white;"/>
        <path id="Text" d="M6,26L5,24L5,21L6,21L6,24L6.5,25L7,24L7,21L8,21L8,24L7,26L6,26ZM9,26L9,22L10,21L12,21L12,25L11,26L9,26ZM10,22L10,25L11,25L11,22L10,22ZM16,26L16,28L15,28L15,22L16,21L18,21L18,25L17,26L16,26ZM16,22L16,25L17,25L17,22L16,22ZM21,26L19,26L19,22L20,21L22,21L22,23L21,24L20,24L20,25L22,25L21,26ZM20,22L20,23L21,23L21,22L20,22ZM23,26L23,22L24,21L26,21L26,25L25,26L23,26ZM24,22L24,25L25,25L25,22L24,22ZM27,26L27,21L29,21L30,22L30,26L29,26L29,22L28,22L28,26L27,26ZM14,19L14,26L13,26L13,19L14,19Z" style="fill:white;"/>
    </g>
</svg>
